<svg viewBox="0 0 14 14" xmlns="http://www.w3.org/2000/svg" id="collection">
 <title>Collection</title>
 <path transform="translate(2.117 4.456)" d="m-1.241-.7678c.7106.04 1.156-.9012.6762-1.426-.4217-.566-1.429-.32-1.534.38-.123.526.32 1.062.858 1.046zm3.071-.3122h9.49c.8.03.67-1.276-.1-1.119h-9.39c-.738-.01-.743 1.13 0 1.119zm-3.071 4.516c.7132.04 1.155-.908.6762-1.434-.4217-.566-1.429-.32-1.534.381-.122.526.316 1.068.858 1.053zm3.071-.313h9.49c.8.02.67-1.275-.1-1.119h-9.39c-.741-.01-.739 1.125 0 1.119zm-3.071 4.516c.711.037 1.155-.907.6762-1.433-.4217-.566-1.429-.32-1.534.38-.122.525.318 1.067.858 1.053zm3.071-.319h9.49c.8.03.67-1.276-.1-1.119h-9.39c-.738-.01-.743 1.13 0 1.119z"/>
</svg>
