<svg viewBox="0 0 14 14" xmlns="http://www.w3.org/2000/svg" id="curly-brackets">
 <path d="m.6859 7.011c.01.855 1.123.662 1.557 1.156.404.611.3 1.401.312 2.103-.03 1.05-.119 2.31.684 3.12.589.52 1.449.73 2.213.59.837-.48-.07-1.27-.745-1.06-.769-.21-1.077-1.1-.986-1.82-.036-1.105.171-2.265-.228-3.314-.148-.426-1.245-.634-1.091-.814.849-.17 1.387-1.013 1.324-1.851.057-1.062-.107-2.138.101-3.188.24-.9854 1.597-.576 1.996-1.323-.138-.8405-1.182-.6631-1.773-.4471-.858.2759-1.453 1.115-1.468 2.012-.138 1.188.168 2.43-.233 3.582-.368.66-1.656.316-1.663 1.254zm12.62 0c-.04-.945-1.37-.572-1.67-1.322-.53-1.41.14-2.991-.46-4.393-.39-1.013-1.621-1.399-2.614-1.258-.813.3763-.089 1.325.606 1.06.838.129 1.198 1.063 1.098 1.817-0 1.084-.1 2.191.17 3.252.25.48.8.722 1.3.867-.9.06-1.52.948-1.46 1.809-.1 1.154.17 2.347-.19 3.467-.37.68-1.272.52-1.841.92-.337.94 1.089.92 1.642.65.929-.25 1.539-1.21 1.519-2.15.14-1.17-.21-2.423.3-3.526.42-.552 1.61-.291 1.6-1.193z"/>
</svg>
